<svg xmlns="http://www.w3.org/2000/svg" width="1600" height="900" viewBox="0 0 1600 900" role="img" aria-labelledby="title"><title id="title">AI &amp; Machine Learning Summit</title><defs><linearGradient id="bg" x1="0" y1="0" x2="1" y2="1"><stop offset="0" stop-color="#14213d"/><stop offset="1" stop-color="#fca311"/></linearGradient></defs><rect x="0" y="0" width="1600" height="900" fill="url(#bg)" /><circle cx="1320" cy="140" r="250" fill="#e5e5e5" opacity=".13"/><circle cx="180" cy="760" r="340" fill="#ffffff" opacity=".09"/><rect x="0" y="690" width="1600" height="210" fill="#000000" opacity=".15"/><circle cx="580" cy="300" r="58" fill="#e5e5e5" opacity=".9"/><circle cx="790" cy="235" r="58" fill="#e5e5e5" opacity=".9"/><circle cx="1000" cy="330" r="58" fill="#e5e5e5" opacity=".9"/><circle cx="655" cy="560" r="58" fill="#e5e5e5" opacity=".9"/><circle cx="910" cy="610" r="58" fill="#e5e5e5" opacity=".9"/><circle cx="1080" cy="520" r="58" fill="#e5e5e5" opacity=".9"/><line x1="580" y1="300" x2="790" y2="235" stroke="#fca311" stroke-width="14" stroke-linecap="round" /><line x1="790" y1="235" x2="1000" y2="330" stroke="#fca311" stroke-width="14" stroke-linecap="round" /><line x1="580" y1="300" x2="655" y2="560" stroke="#fca311" stroke-width="14" stroke-linecap="round" /><line x1="655" y1="560" x2="910" y2="610" stroke="#fca311" stroke-width="14" stroke-linecap="round" /><line x1="1000" y1="330" x2="1080" y2="520" stroke="#fca311" stroke-width="14" stroke-linecap="round" /><line x1="790" y1="235" x2="910" y2="610" stroke="#fca311" stroke-width="14" stroke-linecap="round" /></svg>