<svg xmlns="http://www.w3.org/2000/svg" width="1600" height="900" viewBox="0 0 1600 900" role="img" aria-labelledby="title"><title id="title">Blockchain &amp; Web3 Workshop</title><defs><linearGradient id="bg" x1="0" y1="0" x2="1" y2="1"><stop offset="0" stop-color="#03045e"/><stop offset="1" stop-color="#48cae4"/></linearGradient></defs><rect x="0" y="0" width="1600" height="900" fill="url(#bg)" /><circle cx="1320" cy="140" r="250" fill="#caf0f8" opacity=".13"/><circle cx="180" cy="760" r="340" fill="#ffffff" opacity=".09"/><rect x="0" y="690" width="1600" height="210" fill="#000000" opacity=".15"/><rect x="450" y="270" width="140" height="110" fill="#caf0f8" rx="24" opacity=".9"/><rect x="730" y="175" width="140" height="110" fill="#caf0f8" rx="24" opacity=".9"/><rect x="1010" y="270" width="140" height="110" fill="#caf0f8" rx="24" opacity=".9"/><rect x="550" y="545" width="140" height="110" fill="#caf0f8" rx="24" opacity=".9"/><rect x="910" y="545" width="140" height="110" fill="#caf0f8" rx="24" opacity=".9"/><rect x="730" y="405" width="140" height="110" fill="#caf0f8" rx="24" opacity=".9"/><line x1="590" y1="325" x2="730" y2="250" stroke="#48cae4" stroke-width="16" stroke-linecap="round" /><line x1="870" y1="250" x2="1010" y2="325" stroke="#48cae4" stroke-width="16" stroke-linecap="round" /><line x1="520" y1="380" x2="620" y2="545" stroke="#48cae4" stroke-width="16" stroke-linecap="round" /><line x1="1080" y1="380" x2="980" y2="545" stroke="#48cae4" stroke-width="16" stroke-linecap="round" /><line x1="690" y1="600" x2="910" y2="600" stroke="#48cae4" stroke-width="16" stroke-linecap="round" /><line x1="800" y1="285" x2="800" y2="405" stroke="#48cae4" stroke-width="16" stroke-linecap="round" /></svg>