<svg xmlns="http://www.w3.org/2000/svg" width="1600" height="900" viewBox="0 0 1600 900" role="img" aria-labelledby="title"><title id="title">Ceramics Workshop</title><defs><linearGradient id="bg" x1="0" y1="0" x2="1" y2="1"><stop offset="0" stop-color="#3d405b"/><stop offset="1" stop-color="#e07a5f"/></linearGradient></defs><rect x="0" y="0" width="1600" height="900" fill="url(#bg)" /><circle cx="1320" cy="140" r="250" fill="#f2cc8f" opacity=".13"/><circle cx="180" cy="760" r="340" fill="#ffffff" opacity=".09"/><rect x="0" y="690" width="1600" height="210" fill="#000000" opacity=".15"/><path d="M600 335h400c-15 260-65 385-200 385S615 595 600 335Z" fill="#f2cc8f" /><path d="M660 275h280c30 0 30 70 0 70H660c-30 0-30-70 0-70Z" fill="#fff3d6" /><path d="M545 430c-125 70-80 220 70 205"  stroke="#f2cc8f" stroke-width="45" stroke-linecap="round" fill="none"/><path d="M1055 430c125 70 80 220-70 205"  stroke="#f2cc8f" stroke-width="45" stroke-linecap="round" fill="none"/><line x1="550" y1="750" x2="1050" y2="750" stroke="#ffffff" stroke-width="20" stroke-linecap="round" opacity=".55"/></svg>