<svg xmlns="http://www.w3.org/2000/svg" width="1600" height="900" viewBox="0 0 1600 900" role="img" aria-labelledby="title"><title id="title">Charity 5K Run</title><defs><linearGradient id="bg" x1="0" y1="0" x2="1" y2="1"><stop offset="0" stop-color="#006d77"/><stop offset="1" stop-color="#83c5be"/></linearGradient></defs><rect x="0" y="0" width="1600" height="900" fill="url(#bg)" /><circle cx="1320" cy="140" r="250" fill="#ffddd2" opacity=".13"/><circle cx="180" cy="760" r="340" fill="#ffffff" opacity=".09"/><rect x="0" y="690" width="1600" height="210" fill="#000000" opacity=".15"/><path d="M690 250c-130 110-105 285 110 430 215-145 240-320 110-430-48-40-122-28-165 28-43-56-107-68-155-28Z" fill="#ffddd2" /><path d="M610 640c150 55 310 55 480 0l28 78c-190 72-370 72-538 0Z" fill="#006d77" /><circle cx="800" cy="430" r="58" fill="#006d77" opacity=".82"/><line x1="800" y1="490" x2="800" y2="610" stroke="#006d77" stroke-width="30" stroke-linecap="round" opacity=".82"/></svg>