<svg xmlns="http://www.w3.org/2000/svg" width="1600" height="900" viewBox="0 0 1600 900" role="img" aria-labelledby="title"><title id="title">Comedy Night Live</title><defs><linearGradient id="bg" x1="0" y1="0" x2="1" y2="1"><stop offset="0" stop-color="#20123a"/><stop offset="1" stop-color="#f72585"/></linearGradient></defs><rect x="0" y="0" width="1600" height="900" fill="url(#bg)" /><circle cx="1320" cy="140" r="250" fill="#ffd166" opacity=".13"/><circle cx="180" cy="760" r="340" fill="#ffffff" opacity=".09"/><rect x="0" y="690" width="1600" height="210" fill="#000000" opacity=".15"/><path d="M620 260C530 300 500 430 555 535c50 95 175 130 245 55-80-12-135-72-140-145 66 35 150 27 205-28-20-115-120-190-245-157Z" fill="#ffd166" /><path d="M980 260c90 40 120 170 65 275-50 95-175 130-245 55 80-12 135-72 140-145-66 35-150 27-205-28 20-115 120-190 245-157Z" fill="#f72585" /><circle cx="640" cy="410" r="28" fill="#20123a" /><circle cx="960" cy="410" r="28" fill="#20123a" /><path d="M610 515Q705 585 800 515"  stroke="#20123a" stroke-width="26" stroke-linecap="round" fill="none"/></svg>