<svg xmlns="http://www.w3.org/2000/svg" width="1600" height="900" viewBox="0 0 1600 900" role="img" aria-labelledby="title"><title id="title">Farmers Market Grand Opening</title><defs><linearGradient id="bg" x1="0" y1="0" x2="1" y2="1"><stop offset="0" stop-color="#386641"/><stop offset="1" stop-color="#6a994e"/></linearGradient></defs><rect x="0" y="0" width="1600" height="900" fill="url(#bg)" /><circle cx="1320" cy="140" r="250" fill="#f2e8cf" opacity=".13"/><circle cx="180" cy="760" r="340" fill="#ffffff" opacity=".09"/><rect x="0" y="690" width="1600" height="210" fill="#000000" opacity=".15"/><rect x="390" y="430" width="820" height="260" fill="#f2e8cf" rx="24" opacity=".9"/><path d="M350 430h900L1150 280H450Z" fill="#bc6c25" /><rect x="440" y="430" width="90" height="260" fill="#386641" opacity=".82"/><rect x="575" y="430" width="90" height="260" fill="#6a994e" opacity=".82"/><rect x="710" y="430" width="90" height="260" fill="#386641" opacity=".82"/><rect x="845" y="430" width="90" height="260" fill="#6a994e" opacity=".82"/><rect x="980" y="430" width="90" height="260" fill="#386641" opacity=".82"/><rect x="1115" y="430" width="90" height="260" fill="#6a994e" opacity=".82"/><circle cx="560" cy="615" r="34" fill="#d62828" /><circle cx="640" cy="615" r="34" fill="#f77f00" /><circle cx="720" cy="615" r="34" fill="#386641" /><circle cx="800" cy="615" r="34" fill="#d62828" /></svg>