<svg xmlns="http://www.w3.org/2000/svg" width="1600" height="900" viewBox="0 0 1600 900" role="img" aria-labelledby="title"><title id="title">Indie Film Screening</title><defs><linearGradient id="bg" x1="0" y1="0" x2="1" y2="1"><stop offset="0" stop-color="#111827"/><stop offset="1" stop-color="#6b7280"/></linearGradient></defs><rect x="0" y="0" width="1600" height="900" fill="url(#bg)" /><circle cx="1320" cy="140" r="250" fill="#f9fafb" opacity=".13"/><circle cx="180" cy="760" r="340" fill="#ffffff" opacity=".09"/><rect x="0" y="690" width="1600" height="210" fill="#000000" opacity=".15"/><rect x="390" y="255" width="820" height="420" fill="#f9fafb" rx="28" opacity=".88"/><rect x="430" y="295" width="52" height="52" fill="#111827" rx="8" opacity=".72"/><rect x="540" y="295" width="52" height="52" fill="#111827" rx="8" opacity=".72"/><rect x="650" y="295" width="52" height="52" fill="#111827" rx="8" opacity=".72"/><rect x="760" y="295" width="52" height="52" fill="#111827" rx="8" opacity=".72"/><rect x="870" y="295" width="52" height="52" fill="#111827" rx="8" opacity=".72"/><rect x="980" y="295" width="52" height="52" fill="#111827" rx="8" opacity=".72"/><rect x="1090" y="295" width="52" height="52" fill="#111827" rx="8" opacity=".72"/><rect x="430" y="578" width="52" height="52" fill="#111827" rx="8" opacity=".72"/><rect x="540" y="578" width="52" height="52" fill="#111827" rx="8" opacity=".72"/><rect x="650" y="578" width="52" height="52" fill="#111827" rx="8" opacity=".72"/><rect x="760" y="578" width="52" height="52" fill="#111827" rx="8" opacity=".72"/><rect x="870" y="578" width="52" height="52" fill="#111827" rx="8" opacity=".72"/><rect x="980" y="578" width="52" height="52" fill="#111827" rx="8" opacity=".72"/><rect x="1090" y="578" width="52" height="52" fill="#111827" rx="8" opacity=".72"/><path d="M680 370 920 465 680 560Z" fill="#111827" opacity=".8"/></svg>