<svg xmlns="http://www.w3.org/2000/svg" width="1600" height="900" viewBox="0 0 1600 900" role="img" aria-labelledby="title"><title id="title">Jazz in the Park</title><defs><linearGradient id="bg" x1="0" y1="0" x2="1" y2="1"><stop offset="0" stop-color="#283618"/><stop offset="1" stop-color="#dda15e"/></linearGradient></defs><rect x="0" y="0" width="1600" height="900" fill="url(#bg)" /><circle cx="1320" cy="140" r="250" fill="#fefae0" opacity=".13"/><circle cx="180" cy="760" r="340" fill="#ffffff" opacity=".09"/><rect x="0" y="690" width="1600" height="210" fill="#000000" opacity=".15"/><path d="M845 205c90 60 110 180 35 285l-125 175c-45 65 20 125 90 90 65-32 82-110 28-155l80-105c120 92 75 270-60 335-170 82-330-72-225-225l122-175c35-50 25-105-30-142Z" fill="#dda15e" /><circle cx="900" cy="640" r="120" fill="#fefae0" opacity=".9"/><circle cx="900" cy="640" r="68" fill="#283618" /><line x1="540" y1="250" x2="540" y2="520" stroke="#fefae0" stroke-width="15" stroke-linecap="round" opacity=".75"/><line x1="635" y1="250" x2="635" y2="520" stroke="#fefae0" stroke-width="15" stroke-linecap="round" opacity=".75"/><line x1="1135" y1="250" x2="1135" y2="520" stroke="#fefae0" stroke-width="15" stroke-linecap="round" opacity=".75"/></svg>