<svg xmlns="http://www.w3.org/2000/svg" width="1600" height="900" viewBox="0 0 1600 900" role="img" aria-labelledby="title"><title id="title">Marathon Training Run</title><defs><linearGradient id="bg" x1="0" y1="0" x2="1" y2="1"><stop offset="0" stop-color="#0b3954"/><stop offset="1" stop-color="#bfd7ea"/></linearGradient></defs><rect x="0" y="0" width="1600" height="900" fill="url(#bg)" /><circle cx="1320" cy="140" r="250" fill="#ff6663" opacity=".13"/><circle cx="180" cy="760" r="340" fill="#ffffff" opacity=".09"/><rect x="0" y="690" width="1600" height="210" fill="#000000" opacity=".15"/><path d="M520 610c120 50 255 55 405 15l30 85c-175 60-330 48-465-20Z" fill="#ff6663" /><path d="M760 535c155 15 265 70 350 165l-75 70c-78-75-170-120-298-138Z" fill="#bfd7ea" /><circle cx="725" cy="325" r="50" fill="#ffffff" /><line x1="705" y1="385" x2="640" y2="520" stroke="#ffffff" stroke-width="28" stroke-linecap="round" /><line x1="665" y1="455" x2="820" y2="490" stroke="#ffffff" stroke-width="24" stroke-linecap="round" /><line x1="642" y1="520" x2="548" y2="635" stroke="#ffffff" stroke-width="26" stroke-linecap="round" /><line x1="642" y1="520" x2="770" y2="625" stroke="#ffffff" stroke-width="26" stroke-linecap="round" /></svg>