<svg xmlns="http://www.w3.org/2000/svg" width="1600" height="900" viewBox="0 0 1600 900" role="img" aria-labelledby="title"><title id="title">Open Mic Night</title><defs><linearGradient id="bg" x1="0" y1="0" x2="1" y2="1"><stop offset="0" stop-color="#240046"/><stop offset="1" stop-color="#ff9e00"/></linearGradient></defs><rect x="0" y="0" width="1600" height="900" fill="url(#bg)" /><circle cx="1320" cy="140" r="250" fill="#9d4edd" opacity=".13"/><circle cx="180" cy="760" r="340" fill="#ffffff" opacity=".09"/><rect x="0" y="690" width="1600" height="210" fill="#000000" opacity=".15"/><rect x="720" y="250" width="160" height="285" fill="#f8fafc" rx="80" opacity=".92"/><line x1="755" y1="300" x2="755" y2="480" stroke="#240046" stroke-width="12" stroke-linecap="round" opacity=".65"/><line x1="800" y1="300" x2="800" y2="480" stroke="#240046" stroke-width="12" stroke-linecap="round" opacity=".65"/><line x1="845" y1="300" x2="845" y2="480" stroke="#240046" stroke-width="12" stroke-linecap="round" opacity=".65"/><line x1="800" y1="535" x2="800" y2="690" stroke="#f8fafc" stroke-width="28" stroke-linecap="round" /><line x1="665" y1="690" x2="935" y2="690" stroke="#f8fafc" stroke-width="28" stroke-linecap="round" /><path d="M610 305c-130 95-130 275 0 370"  stroke="#ff9e00" stroke-width="18" stroke-linecap="round" fill="none" opacity=".8"/><path d="M990 305c130 95 130 275 0 370"  stroke="#ff9e00" stroke-width="18" stroke-linecap="round" fill="none" opacity=".8"/></svg>