<svg xmlns="http://www.w3.org/2000/svg" width="1600" height="900" viewBox="0 0 1600 900" role="img" aria-labelledby="title"><title id="title">Salsa Dance Night</title><defs><linearGradient id="bg" x1="0" y1="0" x2="1" y2="1"><stop offset="0" stop-color="#7b2cbf"/><stop offset="1" stop-color="#ff006e"/></linearGradient></defs><rect x="0" y="0" width="1600" height="900" fill="url(#bg)" /><circle cx="1320" cy="140" r="250" fill="#ffbe0b" opacity=".13"/><circle cx="180" cy="760" r="340" fill="#ffffff" opacity=".09"/><rect x="0" y="690" width="1600" height="210" fill="#000000" opacity=".15"/><circle cx="660" cy="295" r="50" fill="#ffbe0b" /><circle cx="940" cy="295" r="50" fill="#ffbe0b" /><line x1="660" y1="355" x2="590" y2="535" stroke="#ffffff" stroke-width="28" stroke-linecap="round" /><line x1="940" y1="355" x2="1010" y2="535" stroke="#ffffff" stroke-width="28" stroke-linecap="round" /><line x1="600" y1="420" x2="805" y2="375" stroke="#ffffff" stroke-width="24" stroke-linecap="round" /><line x1="1000" y1="420" x2="795" y2="375" stroke="#ffffff" stroke-width="24" stroke-linecap="round" /><path d="M500 650Q660 510 820 650Q660 735 500 650Z" fill="#ff006e" /><path d="M780 650Q940 510 1100 650Q940 735 780 650Z" fill="#7b2cbf" /></svg>