<svg xmlns="http://www.w3.org/2000/svg" width="1600" height="900" viewBox="0 0 1600 900" role="img" aria-labelledby="title"><title id="title">Shakespeare in the Park</title><defs><linearGradient id="bg" x1="0" y1="0" x2="1" y2="1"><stop offset="0" stop-color="#2f3e46"/><stop offset="1" stop-color="#84a98c"/></linearGradient></defs><rect x="0" y="0" width="1600" height="900" fill="url(#bg)" /><circle cx="1320" cy="140" r="250" fill="#cad2c5" opacity=".13"/><circle cx="180" cy="760" r="340" fill="#ffffff" opacity=".09"/><rect x="0" y="690" width="1600" height="210" fill="#000000" opacity=".15"/><path d="M280 240c250 95 430 95 680 0v390c-250 100-430 100-680 0Z" fill="#cad2c5" opacity=".88"/><path d="M640 240c250 95 430 95 680 0v390c-250 100-430 100-680 0Z" fill="#84a98c" opacity=".88"/><line x1="800" y1="210" x2="800" y2="700" stroke="#2f3e46" stroke-width="18" stroke-linecap="round" opacity=".8"/><path d="M580 670Q800 555 1020 670"  stroke="#2f3e46" stroke-width="28" stroke-linecap="round" fill="none"/></svg>