<svg xmlns="http://www.w3.org/2000/svg" width="1600" height="900" viewBox="0 0 1600 900" role="img" aria-labelledby="title"><title id="title">Startup Networking Mixer</title><defs><linearGradient id="bg" x1="0" y1="0" x2="1" y2="1"><stop offset="0" stop-color="#233d4d"/><stop offset="1" stop-color="#fe7f2d"/></linearGradient></defs><rect x="0" y="0" width="1600" height="900" fill="url(#bg)" /><circle cx="1320" cy="140" r="250" fill="#a1c181" opacity=".13"/><circle cx="180" cy="760" r="340" fill="#ffffff" opacity=".09"/><rect x="0" y="690" width="1600" height="210" fill="#000000" opacity=".15"/><circle cx="560" cy="350" r="82" fill="#ffffff" opacity=".88"/><circle cx="810" cy="280" r="82" fill="#ffffff" opacity=".88"/><circle cx="1040" cy="385" r="82" fill="#ffffff" opacity=".88"/><circle cx="660" cy="590" r="82" fill="#ffffff" opacity=".88"/><circle cx="950" cy="610" r="82" fill="#ffffff" opacity=".88"/><line x1="610" y1="390" x2="760" y2="315" stroke="#a1c181" stroke-width="16" stroke-linecap="round" /><line x1="875" y1="310" x2="980" y2="365" stroke="#a1c181" stroke-width="16" stroke-linecap="round" /><line x1="610" y1="410" x2="680" y2="540" stroke="#a1c181" stroke-width="16" stroke-linecap="round" /><line x1="720" y1="590" x2="890" y2="610" stroke="#a1c181" stroke-width="16" stroke-linecap="round" /><circle cx="560" cy="332" r="24" fill="#233d4d" /><circle cx="810" cy="262" r="24" fill="#233d4d" /><circle cx="1040" cy="367" r="24" fill="#233d4d" /><circle cx="660" cy="572" r="24" fill="#233d4d" /><circle cx="950" cy="592" r="24" fill="#233d4d" /></svg>